<svg xmlns="http://www.w3.org/2000/svg" width="152" height="210" viewBox="0 0 152 210">
<g>
<path d="M 0.00 0.00 L 152.00 0.00 L 152.00 210.00 L 0.00 210.00 ZM 53.07 195.25 C55.04,196.25 58.73,197.00 61.75,197.00 L 67.00 197.00 L 67.21 180.25 C67.32,171.04 67.36,161.93 67.29,160.00 C67.22,158.07 67.39,151.73 67.68,145.90 L 68.20 135.30 L 79.96 134.70 C100.05,133.69 113.87,127.65 126.67,114.28 C133.01,107.65 138.34,98.65 141.63,89.00 C143.09,84.69 143.49,80.69 143.45,70.50 C143.39,54.88 141.92,49.25 134.90,37.57 C128.87,27.56 128.86,27.54 121.26,21.26 C113.45,14.80 102.15,9.37 93.85,8.09 C90.36,7.55 71.15,6.97 51.17,6.80 C48.09,6.78 45.24,6.75 42.62,6.72 C21.34,6.51 14.74,6.44 12.76,9.43 C11.87,10.78 11.91,12.74 11.97,15.58 C11.98,16.36 12.00,17.21 12.00,18.13 C12.00,22.39 12.42,26.98 12.94,28.35 L 13.88 30.82 L 53.69 31.19 L 93.50 31.55 L 99.50 35.21 C109.26,41.16 113.69,46.81 117.77,58.50 C123.15,73.90 119.09,89.29 106.62,100.78 C104.24,102.98 101.40,105.25 100.31,105.83 C98.48,106.81 98.25,106.43 97.20,100.70 C96.26,95.49 95.48,93.98 92.37,91.25 C90.34,89.46 87.06,87.55 85.09,87.01 C80.88,85.84 59.06,85.68 57.28,86.80 C56.48,87.32 55.97,91.41 55.78,99.04 L 55.50 110.50 L 51.16 111.08 C48.78,111.40 46.43,112.30 45.93,113.08 C44.67,115.07 44.76,146.68 46.04,149.07 C46.60,150.13 47.94,151.00 49.00,151.00 C50.65,151.00 53.00,153.61 53.00,155.43 C53.00,155.74 51.31,157.86 49.25,160.15 L 45.50 164.30 L 45.50 176.08 C45.50,189.33 46.52,191.91 53.07,195.25 ZM 13.75 195.92 C14.71,196.48 19.63,196.95 24.68,196.97 C31.88,196.99 34.21,196.65 35.50,195.36 C36.98,193.87 37.11,188.16 36.89,133.27 L 36.64 72.81 L 34.26 71.91 C32.94,71.41 28.30,71.00 23.93,71.00 C22.84,71.00 21.84,70.96 20.93,70.91 C18.68,70.81 16.99,70.74 15.72,71.43 C11.91,73.52 11.93,82.57 11.98,118.84 C11.99,123.70 12.00,129.06 12.00,134.95 C12.00,190.99 12.11,194.97 13.75,195.92 ZM 13.20 57.80 C13.98,58.58 18.01,59.00 24.66,59.00 C35.88,59.00 37.00,58.41 37.00,52.50 C37.00,46.65 35.82,46.00 25.29,46.00 C17.73,46.00 15.26,46.36 13.83,47.65 C11.73,49.56 11.33,55.93 13.20,57.80 ZM 86.27 107.27 C84.41,110.48 84.33,110.50 75.65,110.79 L 66.91 111.08 L 67.50 95.50 L 72.50 95.19 C80.91,94.65 83.38,95.55 85.90,100.04 C88.13,104.01 88.14,104.08 86.27,107.27 Z" fill="rgb(164,132,101)"/>
<path d="M 120.09 72.12 C120.13,67.65 119.37,63.07 117.77,58.50 C113.69,46.81 109.26,41.16 99.50,35.21 L 93.50 31.55 L 53.69 31.19 L 13.88 30.82 L 12.94 28.35 C12.42,26.98 12.00,22.39 12.00,18.13 C12.00,17.21 11.98,16.36 11.97,15.58 C11.91,12.74 11.87,10.78 12.76,9.43 C14.74,6.44 21.34,6.51 42.62,6.72 C45.24,6.75 48.09,6.78 51.17,6.80 C71.15,6.97 90.36,7.55 93.85,8.09 C102.15,9.37 113.45,14.80 121.26,21.26 C128.86,27.54 128.87,27.56 134.90,37.57 C141.92,49.25 143.39,54.88 143.45,70.50 C143.45,70.85 143.45,71.19 143.45,71.52 L 132.12 71.81 ZM 13.75 195.92 C12.11,194.97 12.00,190.99 12.00,134.95 C12.00,129.06 11.99,123.70 11.98,118.84 C11.93,82.57 11.91,73.52 15.72,71.43 C16.99,70.74 18.68,70.81 20.93,70.91 C21.84,70.96 22.84,71.00 23.93,71.00 C28.30,71.00 32.94,71.41 34.26,71.91 L 36.64 72.81 L 36.89 133.27 C37.11,188.16 36.98,193.87 35.50,195.36 C34.21,196.65 31.88,196.99 24.68,196.97 C19.63,196.95 14.71,196.48 13.75,195.92 ZM 67.46 151.04 C67.46,150.77 67.47,150.51 67.48,150.25 C67.64,142.41 67.37,136.00 66.88,136.00 C66.40,136.00 66.00,136.63 66.00,137.39 C66.00,138.22 64.68,138.93 62.75,139.16 C58.05,139.70 56.18,139.13 55.48,136.94 C55.04,135.56 53.94,135.00 51.68,134.98 C47.61,134.97 46.31,134.10 45.74,131.00 C45.48,129.62 45.21,132.69 45.14,137.82 C45.13,137.92 45.13,138.02 45.13,138.12 C44.86,127.98 45.12,114.37 45.93,113.08 C46.43,112.30 48.78,111.40 51.16,111.08 L 55.50 110.50 L 55.78 99.04 C55.97,91.41 56.48,87.32 57.28,86.80 C59.06,85.68 80.88,85.84 85.09,87.01 C87.06,87.55 90.34,89.46 92.37,91.25 C95.48,93.98 96.26,95.49 97.20,100.70 C98.25,106.43 98.48,106.81 100.31,105.83 C100.33,105.82 100.36,105.81 100.38,105.80 C98.73,107.13 97.14,109.13 96.42,110.84 C92.94,119.17 87.77,122.00 76.03,122.00 L 68.00 122.00 L 68.00 135.31 L 68.20 135.30 L 67.68 145.90 C67.60,147.61 67.52,149.37 67.46,151.04 ZM 13.20 57.80 C11.33,55.93 11.73,49.56 13.83,47.65 C15.26,46.36 17.73,46.00 25.29,46.00 C35.82,46.00 37.00,46.65 37.00,52.50 C37.00,58.41 35.88,59.00 24.66,59.00 C18.01,59.00 13.98,58.58 13.20,57.80 ZM 86.27 107.27 C88.14,104.08 88.13,104.01 85.90,100.04 C83.38,95.55 80.91,94.65 72.50,95.19 L 67.50 95.50 L 66.91 111.08 L 75.65 110.79 C84.33,110.50 84.41,110.48 86.27,107.27 ZM 68.75 113.43 C69.89,114.59 81.83,113.57 83.20,112.20 C84.13,111.27 82.59,111.00 76.20,111.00 C68.56,111.00 66.89,111.54 68.75,113.43 ZM 125.00 61.00 C125.00,61.55 126.55,62.00 128.44,62.00 C130.33,62.00 132.16,61.55 132.50,61.00 C132.87,60.40 131.51,60.00 129.06,60.00 C126.83,60.00 125.00,60.45 125.00,61.00 ZM 67.21 180.25 L 67.00 197.00 L 67.09 180.75 C67.12,175.04 67.21,167.37 67.30,160.53 C67.35,163.26 67.32,171.71 67.21,180.25 ZM 143.08 82.22 C142.80,84.90 142.34,86.91 141.63,89.00 C140.95,90.99 140.18,92.96 139.34,94.88 C141.07,90.75 142.33,86.49 143.08,82.22 ZM 112.48 94.29 C114.62,91.40 116.31,88.35 117.56,85.18 C116.96,86.87 116.30,88.46 115.65,89.71 C115.01,90.95 113.87,92.56 112.48,94.29 ZM 45.67 147.38 C45.91,148.51 46.25,149.33 46.68,149.91 C46.42,149.66 46.20,149.37 46.04,149.07 C45.90,148.81 45.78,148.23 45.67,147.38 ZM 119.44 78.70 C119.70,77.33 119.88,75.96 119.99,74.57 L 119.99 74.81 C119.99,75.78 119.78,77.14 119.44,78.70 ZM 102.15 104.56 C103.03,103.89 104.08,103.03 105.12,102.12 C104.05,103.10 103.03,103.94 102.15,104.56 ZM 127.15 113.77 C126.99,113.94 126.83,114.11 126.67,114.28 C126.83,114.11 126.99,113.94 127.15,113.77 Z" fill="rgb(205,137,42)"/>
<path d="M 67.46 151.04 C67.31,155.07 67.24,158.64 67.29,160.00 C67.29,160.14 67.30,160.32 67.30,160.53 C67.21,167.37 67.12,175.04 67.09,180.75 L 67.00 197.00 L 61.75 197.00 C60.31,197.00 58.71,196.83 57.23,196.54 C58.73,196.79 60.35,196.95 61.75,196.96 L 67.00 197.00 L 67.00 184.03 C67.00,172.67 66.81,171.14 65.43,171.66 C64.06,172.19 50.46,191.42 50.01,193.43 C46.18,190.61 45.50,186.91 45.50,176.08 L 45.50 164.30 L 49.25 160.15 C51.31,157.86 53.00,155.74 53.00,155.43 C53.00,153.61 50.65,151.00 49.00,151.00 C48.24,151.00 47.34,150.55 46.68,149.91 C46.25,149.33 45.91,148.51 45.67,147.38 C45.41,145.41 45.23,142.02 45.13,138.12 C45.13,138.02 45.13,137.92 45.14,137.82 C45.21,132.69 45.48,129.62 45.74,131.00 C46.31,134.10 47.61,134.97 51.68,134.98 C53.94,135.00 55.04,135.56 55.48,136.94 C56.18,139.13 58.05,139.70 62.75,139.16 C64.68,138.93 66.00,138.22 66.00,137.39 C66.00,136.63 66.40,136.00 66.88,136.00 C67.37,136.00 67.64,142.41 67.48,150.25 C67.47,150.51 67.46,150.77 67.46,151.04 Z" fill="rgb(215,154,67)"/>
<path d="M 143.08 82.22 C142.33,86.49 141.07,90.75 139.34,94.88 C136.20,102.03 131.98,108.59 127.15,113.77 L 127.15 113.77 C126.99,113.94 126.83,114.11 126.67,114.28 C113.87,127.65 100.05,133.69 79.96,134.70 L 68.20 135.30 L 68.00 135.31 L 68.00 122.00 L 76.03 122.00 C87.77,122.00 92.94,119.17 96.42,110.84 C97.14,109.13 98.73,107.13 100.38,105.80 C100.79,105.57 101.41,105.13 102.15,104.56 L 102.15 104.56 C103.03,103.94 104.05,103.10 105.12,102.12 C105.63,101.68 106.13,101.23 106.62,100.78 C108.84,98.73 110.80,96.56 112.48,94.29 C113.87,92.56 115.01,90.95 115.65,89.71 C116.30,88.46 116.96,86.87 117.56,85.18 C118.39,83.07 119.01,80.90 119.44,78.70 C119.78,77.14 119.99,75.78 119.99,74.81 L 119.99 74.57 C120.05,73.75 120.09,72.94 120.09,72.12 L 132.12 71.81 L 143.45 71.52 C143.46,76.23 143.35,79.55 143.08,82.22 ZM 68.75 113.43 C66.89,111.54 68.56,111.00 76.20,111.00 C82.59,111.00 84.13,111.27 83.20,112.20 C81.83,113.57 69.89,114.59 68.75,113.43 Z" fill="rgb(241,216,192)"/>
<path d="M 53.25 195.51 C51.46,194.73 50.00,193.83 50.00,193.51 C50.00,192.07 64.04,172.20 65.43,171.66 C66.81,171.14 67.00,172.67 67.00,184.03 L 67.00 197.00 L 61.75 196.96 C58.86,196.94 55.04,196.29 53.25,195.51 ZM 125.00 61.00 C125.00,60.45 126.83,60.00 129.06,60.00 C131.51,60.00 132.87,60.40 132.50,61.00 C132.16,61.55 130.33,62.00 128.44,62.00 C126.55,62.00 125.00,61.55 125.00,61.00 Z" fill="rgb(233,184,124)"/>
</g>
</svg>